<svg id="Layer_1" data-name="Layer 1" xmlns="http://www.w3.org/2000/svg" viewBox="0 0 215.68 129.99"><defs><style>.cls-1{fill:none;}</style></defs><title>Vector Smart Object-black</title><polygon class="cls-1" points="170.41 120.22 180.03 120.22 175.22 108.88 170.41 120.22"/><polygon points="0 129.81 4.3 129.81 4.3 119.34 15.89 119.34 15.89 115.52 4.3 115.52 4.3 108.15 17.1 108.15 17.13 104.29 0 104.29 0 129.81"/><rect x="23.88" y="104.29" width="4.3" height="25.52"/><polygon points="54.24 122.63 40.57 104.29 36.34 104.29 36.34 129.81 40.64 129.81 40.64 111.51 54.24 129.81 58.47 129.81 58.47 104.29 54.24 104.29 54.24 122.63"/><polygon points="70.97 118.91 83.44 118.91 83.44 115.04 70.97 115.04 70.97 108.15 84.9 108.15 84.9 104.29 73.59 104.29 66.67 111.21 66.67 129.81 85.33 129.81 85.33 125.94 70.97 125.94 70.97 118.91"/><path d="M678,564a9,9,0,1,1,0-18,10,10,0,0,1,7.11,3.24l2.51-3.13a14.08,14.08,0,0,0-9.7-3.94c-7.55,0-13.42,5.58-13.42,12.83a12.94,12.94,0,0,0,13.27,13,14.49,14.49,0,0,0,9.88-4.19L685.1,561A10.55,10.55,0,0,1,678,564Z" transform="translate(-574.58 -438.05)"/><polygon points="123.21 104.29 118.9 104.29 118.9 129.81 134.25 129.81 134.25 125.91 123.21 125.91 123.21 104.29"/><polygon points="144.13 118.91 156.6 118.91 156.6 115.04 144.13 115.04 144.13 108.15 158.05 108.15 158.05 104.29 146.92 104.29 139.83 111.38 139.83 129.81 158.49 129.81 158.49 125.94 144.13 125.94 144.13 118.91"/><path d="M747.72,542.34l-11.26,25.52h4.48l2.44-5.76h12.87l2.44,5.76h4.59l-11.16-25.52ZM745,558.27l4.81-11.34,4.81,11.34Z" transform="translate(-574.58 -438.05)"/><polygon points="211.46 104.29 211.46 122.63 197.78 104.29 193.56 104.29 193.56 129.81 197.86 129.81 197.86 111.51 211.46 129.81 215.68 129.81 215.68 104.29 211.46 104.29"/><path d="M748,462.14,723.87,438H641l-24.09,24.09,65.54,65.54Zm-56.64,49.57,21.31-48.57h27.27ZM721.8,443l18.09,18.09H712.64L705.24,443Zm-16.74,0,6.06,18.09H653.73L659.79,443Zm-62,0H659.6l-7.4,18.09H625ZM625,463.14h27.27l21.38,48.64Zm29,0h56.89L682.4,517.4Z" transform="translate(-574.58 -438.05)"/></svg>