<?xml version="1.0" encoding="utf-8"?>
<!-- Generator: Adobe Illustrator 21.0.2, SVG Export Plug-In . SVG Version: 6.00 Build 0)  -->
<svg version="1.1" xmlns="http://www.w3.org/2000/svg" xmlns:xlink="http://www.w3.org/1999/xlink" x="0px" y="0px"
	 viewBox="0 0 215.7 130" style="enable-background:new 0 0 215.7 130;" xml:space="preserve">
<style type="text/css">
	.st0{fill:#FFFFFF;}
</style>
<g id="Layer_2">
</g>
<g id="Layer_1">
	<title>Vector Smart Object-w</title>
	<polygon class="st0" points="0,129.8 4.3,129.8 4.3,119.3 15.9,119.3 15.9,115.5 4.3,115.5 4.3,108.2 17.1,108.2 17.1,104.3 
		0,104.3 	"/>
	<rect x="23.9" y="104.3" class="st0" width="4.3" height="25.5"/>
	<polygon class="st0" points="54.2,122.6 40.6,104.3 36.3,104.3 36.3,129.8 40.6,129.8 40.6,111.5 54.2,129.8 58.5,129.8 
		58.5,104.3 54.2,104.3 	"/>
	<polygon class="st0" points="71,118.9 83.4,118.9 83.4,115 71,115 71,108.2 84.9,108.2 84.9,104.3 73.6,104.3 66.7,111.2 
		66.7,129.8 85.3,129.8 85.3,125.9 71,125.9 	"/>
	<path class="st0" d="M103.4,126c-5,0-9-4-9-9s4-9,9-9c2.7,0.1,5.3,1.2,7.1,3.2l2.5-3.1c-2.6-2.5-6.1-3.9-9.7-3.9
		c-7.5,0-13.4,5.6-13.4,12.8c0,7.1,5.7,13,12.9,13c0.1,0,0.3,0,0.4,0c3.7-0.1,7.2-1.6,9.9-4.2l-2.6-2.8
		C108.6,124.8,106.1,125.9,103.4,126z"/>
	<polygon class="st0" points="123.2,104.3 118.9,104.3 118.9,129.8 134.2,129.8 134.2,125.9 123.2,125.9 	"/>
	<polygon class="st0" points="144.1,118.9 156.6,118.9 156.6,115 144.1,115 144.1,108.2 158.1,108.2 158.1,104.3 146.9,104.3 
		139.8,111.4 139.8,129.8 158.5,129.8 158.5,125.9 144.1,125.9 	"/>
	<path class="st0" d="M173.1,104.3l-11.3,25.5h4.5l2.4-5.8h12.9l2.4,5.8h4.6l-11.2-25.5H173.1z M170.4,120.2l4.8-11.3l4.8,11.3
		H170.4z"/>
	<polygon class="st0" points="211.5,104.3 211.5,122.6 197.8,104.3 193.6,104.3 193.6,129.8 197.9,129.8 197.9,111.5 211.5,129.8 
		215.7,129.8 215.7,104.3 	"/>
	<path class="st0" d="M173.4,24.1L149.3,0H66.4L42.3,24l65.5,65.5L173.4,24.1z M116.8,73.7l21.3-48.6h27.3L116.8,73.7z M147.2,5
		L165.3,23h-27.2L130.7,5H147.2z M130.5,5l6.1,18.1H79.1L85.2,5H130.5z M68.5,5H85L77.6,23H50.4L68.5,5z M50.4,25.1h27.3l21.4,48.6
		L50.4,25.1z M79.4,25.1h56.9l-28.5,54.3L79.4,25.1z"/>
</g>
</svg>
