<svg id="Layer_1" data-name="Layer 1" xmlns="http://www.w3.org/2000/svg" viewBox="0 0 68.13 68.33"><defs><style>.cls-1{fill:#fff;}</style></defs><title>noun_58309_cc</title><path class="cls-1" d="M78,55H54.5v4H78a1,1,0,0,1,1,1V84a1,1,0,0,1-1,1H54.17a7.49,7.49,0,0,1-3,4H78a5,5,0,0,0,5-5V60A5,5,0,0,0,78,55Z" transform="translate(-18.36 -20.67)"/><polygon class="cls-1" points="58.45 40.33 35.97 40.33 35.97 62.14 35.97 62.14 35.96 62.33 58.45 62.33 58.45 40.33"/><path class="cls-1" d="M52.36,28.35a5,5,0,0,0-5-5h-24a5,5,0,0,0-5,5v54.8a5,5,0,0,0,5,5h24a5,5,0,0,0,5-5ZM48.07,83.86a1,1,0,0,1-.7.3h-24a1,1,0,0,1-.7-.3,1,1,0,0,1-.3-.7V28.36a1,1,0,0,1,.3-.71,1,1,0,0,1,.7-.29h24a1,1,0,0,1,.7.29,1,1,0,0,1,.3.71v54.8A1.06,1.06,0,0,1,48.07,83.86Z" transform="translate(-18.36 -20.67)"/><rect class="cls-1" x="6" y="8.87" width="22" height="44"/><circle class="cls-1" cx="17" cy="57.87" r="3"/><path class="cls-1" d="M63,30c-.45-.43-.58-.51-.84-.73A18,18,0,0,1,77.91,45.07c-.19-.21-.35-.39-.74-.78-1.42-1.46-3.9.15-3.9.15l6.89,7.12,6.33-7.63s-2.59-1.41-3.9.15a9.32,9.32,0,0,0-.65.85A22.11,22.11,0,0,0,62.3,25.24c.21-.17.4-.32.8-.67,1.53-1.34.08-3.9.08-3.9l-7.51,6.47,7.26,6.75S64.47,31.37,63,30Z" transform="translate(-18.36 -20.67)"/></svg>